<?xml version="1.0" encoding="utf-8"?>
<!-- Generator: Adobe Illustrator 16.0.0, SVG Export Plug-In . SVG Version: 6.00 Build 0)  -->
<!DOCTYPE svg PUBLIC "-//W3C//DTD SVG 1.1//EN" "http://www.w3.org/Graphics/SVG/1.1/DTD/svg11.dtd">
<svg version="1.1" id="レイヤー_1" xmlns="http://www.w3.org/2000/svg" xmlns:xlink="http://www.w3.org/1999/xlink" x="0px"
	 y="0px" width="95px" height="100px" viewBox="0 0 95 100" enable-background="new 0 0 95 100" xml:space="preserve">
<rect fill="#F7F7F7" width="95" height="100"/>
<g>
	<polygon fill="#EAEAEA" points="18.973,50 9.476,55 0,50.01 0,69.989 28.469,55 	"/>
	<polygon fill="#EAEAEA" points="18.973,0 18.972,0 9.476,5 0,0.01 0,19.989 28.469,5 	"/>
	<polygon fill="#EAEAEA" points="56.996,70 47.5,75 56.995,80 47.5,85 56.995,90 66.492,85 75.988,80 95,69.989 95,50.01 94.979,50 
		85.484,55 94.979,60 85.484,65 28.509,35 19.012,30 28.509,25 38.004,30 47.5,25 38.004,20 47.5,15 38.004,10 0,30.011 0,49.989 
		0.021,50 9.516,45 0.021,40 9.516,35 66.492,65 75.988,70 66.492,75 	"/>
	<polygon fill="#EAEAEA" points="94.979,100 94.979,100 94.98,100 	"/>
	<polygon fill="#EAEAEA" points="76.027,100 85.523,95 85.523,95 95,99.99 95,80.01 66.531,95 	"/>
	<polygon fill="#EAEAEA" points="28.509,85 19.012,80 28.509,75 38.004,80 47.5,75 38.004,70 47.5,65 38.004,60 0,80.01 0,99.99 
		0.021,100 9.516,95 0.021,90 9.516,85 38.004,100 56.996,100 	"/>
	<polygon fill="#EAEAEA" points="18.973,100 18.973,100 18.972,100 	"/>
	<polygon fill="#EAEAEA" points="66.492,15 75.988,20 66.492,25 56.996,20 47.5,25 56.995,30 47.5,35 56.995,40 66.492,35 
		75.988,30 95,19.989 95,0.01 94.98,0 94.979,0 85.484,5 94.979,10 85.484,15 56.996,0 38.004,0 	"/>
	<polygon fill="#EAEAEA" points="76.027,50 85.523,45 85.523,45 95,49.989 95,30.011 66.531,45 	"/>
</g>
</svg>
